<?xml version="1.0" standalone="no"?><!DOCTYPE svg PUBLIC "-//W3C//DTD SVG 1.1//EN" "http://www.w3.org/Graphics/SVG/1.1/DTD/svg11.dtd"><svg class="icon" width="128px" height="124.12px" viewBox="0 0 1056 1024" version="1.1" xmlns="http://www.w3.org/2000/svg"><path fill="#515151" d="M864.064 770.88 196 770.88l0-156.768-83.52 0 0 274.336c0 43.328 37.376 78.4 83.52 78.4l668.064 0c46.112 0 83.488-35.072 83.488-78.4l0-274.336-83.488 0L864.064 770.88zM885.28 123.616C837.024 75.872 807.552 64 748.384 64L311.424 64C275.808 64 230.816 68.064 174.688 123.616l-141.312 176.32 993.216 0L885.28 123.616zM364.896 338.464 35.104 338.464c0 86.688 73.824 196.224 164.896 196.224C291.072 534.688 364.896 425.152 364.896 338.464zM860.032 534.688c91.072 0 164.928-109.536 164.928-196.224L695.136 338.464C695.136 425.152 768.96 534.688 860.032 534.688zM529.792 534.688c91.072 0 164.928-109.536 164.928-196.224L364.896 338.464C364.896 425.152 438.752 534.688 529.792 534.688z" /></svg>