<?xml version="1.0" standalone="no"?><!DOCTYPE svg PUBLIC "-//W3C//DTD SVG 1.1//EN" "http://www.w3.org/Graphics/SVG/1.1/DTD/svg11.dtd"><svg class="icon" width="128px" height="128.00px" viewBox="0 0 1024 1024" version="1.1" xmlns="http://www.w3.org/2000/svg"><path fill="#515151" d="M218.016 76.992L172.96 121.984 240 188.992 284.992 144z m588 0L738.976 144 784 188.992l67.008-66.976zM512 96.992a309.664 309.664 0 0 0-32 2.016h-0.992c-129.76 14.88-232.992 119.744-251.008 248.992-14.4 104 28.48 198.24 100 259.008A167.776 167.776 0 0 1 384 704v192h72.992c11.136 19.136 31.36 32 55.008 32 23.616 0 43.872-12.864 55.008-32H640v-128h3.008v-38.016c0-46.848 24.352-94.24 64-130.976C760 545.984 800 470.624 800 384c0-158.112-130.112-288.512-288-287.008z m0 64c123.616-1.728 224 99.52 224 223.008 0 67.008-31.008 126.016-74.016 168.992l1.024 1.024c-43.008 40.096-70.496 92.608-78.016 149.984h-140c-7.008-54.88-30.624-107.872-75.008-146.016-56.48-48.096-90.24-120.352-78.976-201.984 13.984-100.864 95.744-181.888 196-192.992 8.352-1.024 16.736-1.888 24.992-2.016zM64 384v64h96v-64z m800 0v64h96v-64zM240 643.008l-67.008 66.976 45.024 45.024L284.96 688z m544 0L739.008 688l66.976 67.008 45.024-45.024zM448 768h128v64h-128z"  /></svg>