<?xml version="1.0" standalone="no"?><!DOCTYPE svg PUBLIC "-//W3C//DTD SVG 1.1//EN" "http://www.w3.org/Graphics/SVG/1.1/DTD/svg11.dtd"><svg t="1512030633969" class="icon" style="" viewBox="0 0 1024 1024" version="1.1" xmlns="http://www.w3.org/2000/svg" p-id="3196" xmlns:xlink="http://www.w3.org/1999/xlink" width="128" height="128"><defs><style type="text/css"></style></defs><path d="M1024 555.944533c0-67.3152-12.3072-132.872533-36.580267-194.848l-0.471467-1.205333-0.5376-1.179733-3.784533-8.3136c-10.391467-22.869333-21.730133-47.818667-35.818667-72.125867 17.9008-25.122133 27.703467-55.3088 27.703467-87.082667 0-83.086933-67.592533-150.6816-150.6752-150.6816-37.824 0-73.1456 13.806933-100.309333 38.222933C657.408 48.066133 585.032533 32 512.004267 32c-74.478933 0-148.162133 16.699733-215.336533 48.561067-27.4688-25.348267-63.8528-40.055467-102.176-40.055467-83.082667 0-150.6752 67.594667-150.6752 150.6816 0 33.640533 11.3216 65.924267 31.434667 91.991467-16.264533 28.6848-30.752 59.1296-38.312533 77.058133l-0.2432 0.576-0.228267 0.5824C12.2688 423.291733 0 488.746667 0 555.944533c0 73.687467 16.942933 136.7296 51.7952 192.7296 33.813333 54.3296 81.890133 96.736 121.405867 128.1408l1.640533 1.576533c2.624 2.5216 7.5072 7.214933 39.428267 24.360533 16.936533 9.096533 44.078933 22.850133 77.1968 36.7104 84.834133 35.502933 163.355733 53.504 233.384533 53.504 1.691733 0 3.389867-0.010667 5.079467-0.032 70.683733-0.9024 146.602667-20.823467 225.6512-59.210667 58.077867-28.202667 97.7664-57.009067 102.653867-61.137067l31.4432-26.557867-0.5568-0.878933C962.581333 779.517867 1024 695.639467 1024 555.944533zM827.2384 835.6672l0.541867 0.855467c-2.734933 2.3104-145.290667 107.255467-298.453333 109.211733-1.489067 0.0192-2.986667 0.027733-4.475733 0.027733-153.079467 0-314.9248-99.1168-317.303467-101.403733l0.2304-0.379733c-94.9888-74.638933-160.576-150.001067-160.576-288.034133 0-62.688 11.7952-122.542933 33.226667-177.3632 9.821867-23.2896 32.9216-70.734933 54.702933-102.709333-26.645333-18.72-44.113067-49.640533-44.113067-84.6848 0-57.149867 46.333867-103.4816 103.4752-103.4816 38.602667 0 72.196267 21.1712 89.988267 52.507733 67.255467-38.811733 144.8512-61.013333 227.524267-61.013333 80.9472 0 157.047467 21.256533 223.332267 58.570667 18.122667-29.9648 50.9248-50.065067 88.4992-50.065067 57.152 0 103.4752 46.331733 103.4752 103.4816 0 33.2928-15.784533 62.833067-40.200533 81.757867 23.982933 32.509867 40.448 70.496 56.360533 105.3632 21.499733 54.897067 33.329067 114.845867 33.329067 177.636267C976.8 688.576 916.238933 763.9552 827.2384 835.6672z" p-id="3197" fill="#1296db"></path><path d="M695.741867 394.506667m-52.258133 0a24.496 24.496 0 1 0 104.516267 0 24.496 24.496 0 1 0-104.516267 0Z" p-id="3198" fill="#1296db"></path><path d="M341.742933 394.506667m-52.258133 0a24.496 24.496 0 1 0 104.516267 0 24.496 24.496 0 1 0-104.516267 0Z" p-id="3199" fill="#1296db"></path><path d="M692.3712 669.277867c-4.341333 0-8.253867 1.821867-11.0208 4.7424-48.785067 26.144-108.420267 13.717333-143.099733-27.639467 0.162133-0.2816-1.787733-2.180267-1.787733-2.180267-1.408-1.762133-2.762667-3.566933-4.0768-5.4336 36.418133-5.629867 64.315733-37.250133 64.315733-75.4176 0-42.1376-34.0096-59.272533-75.963733-59.272533-41.943467 0-75.9552 17.134933-75.9552 59.272533 0 36.917333 26.0928 67.712 60.763733 74.779733-1.450667 2.0864-2.958933 4.113067-4.526933 6.071467 0 0-1.949867 1.898667-1.7792 2.180267-35.509333 42.3424-97.1648 54.357333-146.56 25.7088l-0.6784 1.181867c-2.7008-2.481067-6.304-3.9936-10.2592-3.9936-8.379733 0-15.172267 6.792533-15.172267 15.172267 0 6.813867 4.490667 12.576 10.673067 14.493867l-0.5568 0.970667c60.797867 35.264 136.1408 22.244267 182.0608-27.208533 45.911467 49.4528 121.262933 62.472533 182.052267 27.208533l-1.213867-2.114133c4.738133-2.5664 7.957333-7.581867 7.957333-13.3504C707.543467 676.0704 700.750933 669.277867 692.3712 669.277867z" p-id="3200" fill="#1296db"></path></svg>