<?xml version="1.0" standalone="no"?><!DOCTYPE svg PUBLIC "-//W3C//DTD SVG 1.1//EN" "http://www.w3.org/Graphics/SVG/1.1/DTD/svg11.dtd"><svg t="1512030525411" class="icon" style="" viewBox="0 0 1026 1024" version="1.1" xmlns="http://www.w3.org/2000/svg" p-id="1873" xmlns:xlink="http://www.w3.org/1999/xlink" width="128.25" height="128"><defs><style type="text/css"></style></defs><path d="M994 1024H34c-17.6 0-32-14.4-32-32s14.4-32 32-32h960c17.6 0 32 14.4 32 32s-14.4 32-32 32zM900 369.5h-1.6c-11.8-0.4-22.6-5.4-30.7-13.9L678.1 152.3c-16.6-17.7-15.6-45.6 2.1-62.2l79.6-74.3C777.5-0.7 805.4 0.3 822 18l189.7 203.2c16.6 17.7 15.6 45.6-2.1 62.2L930 357.7c-8.3 7.7-18.9 11.8-30 11.8z m14.5-57.6z m-176-188.6l162.4 174 50.3-47-162.4-174-50.3 47zM397.8 838.5h-1.6c-11.8-0.4-22.6-5.4-30.6-13.9L175.9 621.3c-16.6-17.7-15.6-45.6 2.1-62.2l420.6-392.6c8.6-8 19.8-12.2 31.5-11.8 11.8 0.4 22.6 5.4 30.7 13.9l189.7 203.2c16.6 17.7 15.6 45.6-2.1 62.2L427.8 826.6c-8.2 7.7-18.8 11.9-30 11.9z m14.6-57.7zM236.3 592.2l162.4 174 391.4-365.3-162.4-174-391.4 365.3z" fill="#1296db" p-id="1874"></path><path d="M58.2 918.6L132.4 617c5.3-21.5 21.9-38.4 43.4-44 21.2-5.5 43.5 0.9 58.4 16.8l164.3 176c14.8 15.9 19.7 38.6 12.7 59.4-7.1 21-25 36.5-46.9 40.3L58.2 918.6z m134.6-279.3l-49 199.5 202.4-35.2-153.4-164.3z m-5.5-5.8z" fill="#1296db" p-id="1875"></path></svg>